# xmcd CD database file
# Copyright (C) 1995-1998 Ti Kan
#
# Track frame offsets:
#	150
#	20387
#	38375
#	52475
#	82625
#	110107
#	127687
#	148315
#	174575
#	182500
#	192262
#	200012
#	210475
#	220450
#	228175
#	236425
#
# Disc length: 3391 seconds
#
# Revision: 1
# Processed by: cddbd v1.4PL0 Copyright (c) Steve Scherf et al.
# Submitted via: CDex 1.30Release
#
DISCID=dc0d3d10
DTITLE=Booker Laury and Mose Vinson - Memphis Piano Blues Today
DYEAR=1990
DGENRE=Blues
TTITLE0=Next Time You See Me
TTITLE1=Big Legged Woman
TTITLE2=Blues With A Feeling
TTITLE3=Booker T.'s Memphis Blues
TTITLE4=Night Time Is The Right Time
TTITLE5=Sweet Root Man
TTITLE6=You Can Go Your Way
TTITLE7=Bookers Boogie
TTITLE8=Blues Jump The Rabbit
TTITLE9=Tell Me Like It Is
TTITLE10=Boogie Woogie Blues
TTITLE11=Good Morning Memphis
TTITLE12=44 Blues
TTITLE13=4'o Clock Blues
TTITLE14=You're Not Too Old
TTITLE15=Lost My Mule Blues
EXTD=YEAR: 1990 ID3G:   0
EXTT0=
EXTT1=
EXTT2=
EXTT3=
EXTT4=
EXTT5=
EXTT6=
EXTT7=
EXTT8=
EXTT9=
EXTT10=
EXTT11=
EXTT12=
EXTT13=
EXTT14=
EXTT15=
PLAYORDER=
